<svg width="72" height="72" viewBox="0 0 72 72" fill="none" xmlns="http://www.w3.org/2000/svg">
<g clip-path="url(#clip0_2_4815)">
<path d="M42.25 22.5H58V27H42.25V22.5Z" fill="#23A6F0"/>
<path d="M42.25 33.75H58V38.25H42.25V33.75Z" fill="#23A6F0"/>
<path d="M42.25 45H58V49.5H42.25V45Z" fill="#23A6F0"/>
<path d="M13 22.5H28.75V27H13V22.5Z" fill="#23A6F0"/>
<path d="M13 33.75H28.75V38.25H13V33.75Z" fill="#23A6F0"/>
<path d="M13 45H28.75V49.5H13V45Z" fill="#23A6F0"/>
<path d="M62.5 11.25H8.5C7.30689 11.2512 6.16299 11.7257 5.31934 12.5693C4.47568 13.413 4.00119 14.5569 4 15.75V56.25C4.00119 57.4431 4.47568 58.587 5.31934 59.4307C6.16299 60.2743 7.30689 60.7488 8.5 60.75H62.5C63.6931 60.7488 64.837 60.2743 65.6807 59.4307C66.5243 58.587 66.9988 57.4431 67 56.25V15.75C66.9988 14.5569 66.5243 13.413 65.6807 12.5693C64.837 11.7257 63.6931 11.2512 62.5 11.25ZM8.5 15.75H33.25V56.25H8.5V15.75ZM37.75 56.25V15.75H62.5V56.25H37.75Z" fill="#23A6F0"/>
</g>
<defs>
<clipPath id="clip0_2_4815">
<rect width="72" height="72" fill="white"/>
</clipPath>
</defs>
</svg>
