<svg xmlns="http://www.w3.org/2000/svg" xml:space="preserve" width="800" height="800" fill="#737373" viewBox="0 0 2500 583">
  <path d="M508.9 501.4c0 39.3-32.8 71.2-57.5 71.2H172.1L523.4 11.4H53.7v93h24.1c0-39.3 25.4-71.1 50.2-71.1h241.3L15.9 594.4h509.6v-93h-16.6M918.3 576.1zM1118.4 549 846.6 11.4l-249.1 538c-4.4 11.8-28.4 26.7-62.4 26.7v18.2h132.6v-18.2c-24.6 0-51-12.2-44.6-26.8L683 419.4h229.8L978.1 549c7.4 13.1-25.7 27.2-59.8 27.2v18.2h276l.1-18.2c-41.8-.1-67.3-13.1-76-27.2zM693 398.4l99.4-218.2 111 218.2H693zM1226 33.9c40.4 0 73.8 10.4 73.8 23 0 100-.2 491.5 0 491.5 0 13.4-32.9 28.3-73.4 28.3l-.1 17.6h270.2v-16.4c-40.1 0-72.6-16-72.6-29.4V29h77.9c75 0 135.8 62.3 135.8 133s-60.8 128.1-135.9 128.1h-53.9s182.6 276.5 182.9 276.5c7.2 10.5 10.8 27.8 10.8 27.8h196.9V578c-37.9 0-57.7-15.7-68.7-29.5l-175.8-229.4c84.4-5.6 149.7-73.8 149.7-154.8 0-84.6-72.7-152.9-162.4-152.9H1226v22.5M2440 549 2168.2 11.4l-249.1 538c-4.4 11.8-28.3 27.3-62.4 27.3v17.6h132.6v-16.4c-24.6 0-50.9-14-44.6-28.6l59.9-129.9h229.8l65.3 129.6c7.5 13.1-25.7 27.8-59.8 27.8v17.6h276l.1-17c-41.8 0-67.3-14.3-76-28.4zm-425.5-150.6 99.4-218.2 111 218.2h-210.4z"/>
</svg>